# xmcd CD database file
#
# Track frame offsets:
#	150
#	14305
#	33557
#	53352
#	72115
#	85276
#	103084
#	120450
#	137073
#	153289
#	170249
#	193328
#	213849
#
# Disc length: 3119 seconds
#
# Revision: 0
# Processed by: cddbd v1.5.1PL2 Copyright (c) Steve Scherf et al.
# Submitted via: CDex 1.51
#
DISCID=af0c2d0d
DTITLE=Rob '21' Taylor - Memories of St Lucia
DYEAR=2004
DGENRE=Jazz
TTITLE0=God Bless the Child
TTITLE1=Endless Love
TTITLE2=The Closer I Get to You
TTITLE3=The Look of Love
TTITLE4=I Left My Heart in St Lucia
TTITLE5=Just My Imagination
TTITLE6=Love Takes Time
TTITLE7=Look Who's Dancing
TTITLE8=Unforgettable
TTITLE9=Redemption Song
TTITLE10=Bonus Track
TTITLE11=Bonus Track
TTITLE12=Bonus Track
EXTD=YEAR: 2004
EXTT0=
EXTT1=
EXTT2=
EXTT3=
EXTT4=
EXTT5=
EXTT6=
EXTT7=
EXTT8=
EXTT9=
EXTT10=
EXTT11=
EXTT12=
PLAYORDER=
